<mxfile host="Electron" modified="2024-06-10T12:39:51.866Z" agent="Mozilla/5.0 (Windows NT 10.0; Win64; x64) AppleWebKit/537.36 (KHTML, like Gecko) draw.io/24.1.0 Chrome/120.0.6099.109 Electron/28.1.0 Safari/537.36" etag="KF9S9SJwWbmXZ4FYgVGR" version="24.1.0" type="device">
  <diagram name="Страница — 1" id="XDdJCOj5BgrIff6nonp3">
    <mxGraphModel dx="2535" dy="1731" grid="1" gridSize="10" guides="1" tooltips="1" connect="1" arrows="1" fold="1" page="1" pageScale="1" pageWidth="650" pageHeight="200" math="0" shadow="0">
      <root>
        <mxCell id="0" />
        <mxCell id="1" parent="0" />
        <mxCell id="-37k8DLq6wRsoh5hlZ1D-1" value="СТРАНИЦА ГЛАВНЯ&lt;div&gt;поиск&lt;/div&gt;&lt;div&gt;меню&lt;/div&gt;&lt;div&gt;кнопка показа меню в разных стилях&lt;/div&gt;&lt;div&gt;фильтрация&lt;/div&gt;&lt;div&gt;items с кнопкой добавления/удаления в корзину&lt;/div&gt;&lt;div&gt;кнопка корзины&lt;/div&gt;&lt;div&gt;кнопка заказов&lt;/div&gt;&lt;div&gt;связь с админом&lt;/div&gt;&lt;div&gt;кнопка войти&lt;/div&gt;" style="rounded=0;whiteSpace=wrap;html=1;" parent="1" vertex="1">
          <mxGeometry y="-610" width="270" height="200" as="geometry" />
        </mxCell>
        <mxCell id="-37k8DLq6wRsoh5hlZ1D-2" value="КОРЗИНА&lt;div&gt;&lt;div&gt;items с кнопкой добавления/удаления в корзину&lt;/div&gt;&lt;/div&gt;&lt;div&gt;&lt;span style=&quot;background-color: initial;&quot;&gt;поле для добавления&lt;/span&gt;&lt;span style=&quot;background-color: initial;&quot;&gt;&amp;nbsp;&lt;/span&gt;комментарий&lt;/div&gt;&lt;div&gt;поле для добавления адрес&lt;/div&gt;&lt;div&gt;кнопка оплатить&lt;/div&gt;&lt;div&gt;кнопка меню&lt;/div&gt;&lt;div&gt;кнопка закзов&lt;/div&gt;&lt;div&gt;&lt;br&gt;&lt;/div&gt;" style="rounded=0;whiteSpace=wrap;html=1;" parent="1" vertex="1">
          <mxGeometry x="180" y="10" width="180" height="220" as="geometry" />
        </mxCell>
        <mxCell id="-37k8DLq6wRsoh5hlZ1D-88" style="edgeStyle=orthogonalEdgeStyle;rounded=0;orthogonalLoop=1;jettySize=auto;html=1;" parent="1" source="-37k8DLq6wRsoh5hlZ1D-3" target="-37k8DLq6wRsoh5hlZ1D-86" edge="1">
          <mxGeometry relative="1" as="geometry" />
        </mxCell>
        <mxCell id="-37k8DLq6wRsoh5hlZ1D-3" value="&lt;div&gt;ОПЛАТА&lt;/div&gt;&lt;div&gt;Все поля КОРЗИНЫ&lt;/div&gt;&lt;div&gt;выбор формы оплаты&lt;/div&gt;&lt;div&gt;(если безнал ввод карты)&lt;/div&gt;&lt;div&gt;кнопка оплать&lt;/div&gt;&lt;div&gt;вернуться&lt;/div&gt;" style="rounded=0;whiteSpace=wrap;html=1;" parent="1" vertex="1">
          <mxGeometry x="200" y="540" width="180" height="180" as="geometry" />
        </mxCell>
        <mxCell id="-37k8DLq6wRsoh5hlZ1D-4" value="AUTH&lt;div&gt;почта&lt;/div&gt;&lt;div&gt;пароль&lt;/div&gt;&lt;div&gt;кнопка auth&lt;br&gt;кнопка регистрация&lt;/div&gt;" style="rounded=0;whiteSpace=wrap;html=1;" parent="1" vertex="1">
          <mxGeometry x="-410" y="-60" width="180" height="180" as="geometry" />
        </mxCell>
        <mxCell id="-37k8DLq6wRsoh5hlZ1D-5" value="РЕГИСТРАЦИЯ&lt;div&gt;все поля которые нада&lt;/div&gt;&lt;div&gt;ввод кода подтверждения почты&lt;/div&gt;&lt;div&gt;&lt;span style=&quot;font-size: 11px; text-wrap: nowrap; background-color: rgb(255, 255, 255);&quot;&gt;кнопка вернуться&lt;/span&gt;&lt;/div&gt;" style="rounded=0;whiteSpace=wrap;html=1;" parent="1" vertex="1">
          <mxGeometry x="-440" y="270" width="180" height="180" as="geometry" />
        </mxCell>
        <mxCell id="-37k8DLq6wRsoh5hlZ1D-6" value="ЗАКАЗА&lt;div&gt;&lt;div&gt;items&lt;/div&gt;&lt;div&gt;комментарий&lt;/div&gt;&lt;div&gt;&lt;span style=&quot;background-color: initial;&quot;&gt;адресс&lt;/span&gt;&lt;/div&gt;&lt;/div&gt;&lt;div&gt;&lt;span style=&quot;background-color: initial;&quot;&gt;кнопка для связи с курьером&lt;/span&gt;&lt;/div&gt;&lt;div&gt;&lt;span style=&quot;background-color: initial;&quot;&gt;статус заказа&lt;/span&gt;&lt;/div&gt;&lt;div&gt;отменить заказ&lt;/div&gt;&lt;div&gt;кнопка меню&lt;/div&gt;&lt;div&gt;кнопка вернуться&lt;/div&gt;" style="rounded=0;whiteSpace=wrap;html=1;" parent="1" vertex="1">
          <mxGeometry x="780" y="-130" width="180" height="180" as="geometry" />
        </mxCell>
        <mxCell id="-37k8DLq6wRsoh5hlZ1D-7" value="&lt;div&gt;ЧАТ&lt;/div&gt;&lt;div&gt;с курьером&amp;nbsp;&lt;/div&gt;&lt;div&gt;кнопка назад&lt;/div&gt;" style="rounded=0;whiteSpace=wrap;html=1;" parent="1" vertex="1">
          <mxGeometry x="1060" y="-140" width="180" height="180" as="geometry" />
        </mxCell>
        <mxCell id="-37k8DLq6wRsoh5hlZ1D-8" value="&lt;h1 style=&quot;margin-top: 0px; font-size: 54px;&quot;&gt;&lt;span style=&quot;background-color: initial;&quot;&gt;Сlient&lt;/span&gt;&lt;br&gt;&lt;/h1&gt;" style="text;html=1;whiteSpace=wrap;overflow=hidden;rounded=0;" parent="1" vertex="1">
          <mxGeometry x="-570" y="-900" width="180" height="120" as="geometry" />
        </mxCell>
        <mxCell id="-37k8DLq6wRsoh5hlZ1D-12" value="СПИСОК ТЕКУЩИХ ЗАКАЗОВ&lt;div&gt;КНОПКА ИСТОРИЯ ЗАКАЗОВ&lt;/div&gt;&lt;div&gt;КНОПКА ОТМЕННЕННЫЕ ЗАКАЗЫ&lt;br&gt;&lt;div&gt;&lt;div&gt;КНОПКА МЕНЮ&lt;/div&gt;&lt;/div&gt;&lt;/div&gt;&lt;div&gt;КНОПКА КОРЗИНА&lt;/div&gt;" style="rounded=0;whiteSpace=wrap;html=1;" parent="1" vertex="1">
          <mxGeometry x="450" y="-590" width="180" height="180" as="geometry" />
        </mxCell>
        <mxCell id="-37k8DLq6wRsoh5hlZ1D-14" value="deafult url" style="rounded=0;whiteSpace=wrap;html=1;fillColor=#fff2cc;strokeColor=#d6b656;" parent="1" vertex="1">
          <mxGeometry x="45" y="-815" width="180" height="60" as="geometry" />
        </mxCell>
        <mxCell id="-37k8DLq6wRsoh5hlZ1D-25" value="КНОПКА РЕГИСТРАЦИИ/КНОПКА ВЕРНУТЬСЯ" style="endArrow=classic;html=1;rounded=0;exitX=0.5;exitY=1;exitDx=0;exitDy=0;entryX=0.547;entryY=-0.013;entryDx=0;entryDy=0;entryPerimeter=0;startArrow=classic;startFill=1;" parent="1" source="-37k8DLq6wRsoh5hlZ1D-4" target="-37k8DLq6wRsoh5hlZ1D-5" edge="1">
          <mxGeometry width="50" height="50" relative="1" as="geometry">
            <mxPoint x="-220" y="60" as="sourcePoint" />
            <mxPoint x="-170" y="10" as="targetPoint" />
          </mxGeometry>
        </mxCell>
        <mxCell id="-37k8DLq6wRsoh5hlZ1D-28" value="нет" style="endArrow=classic;html=1;rounded=0;exitX=0.5;exitY=1;exitDx=0;exitDy=0;entryX=0.5;entryY=0;entryDx=0;entryDy=0;startArrow=none;startFill=0;" parent="1" source="-37k8DLq6wRsoh5hlZ1D-41" target="-37k8DLq6wRsoh5hlZ1D-2" edge="1">
          <mxGeometry width="50" height="50" relative="1" as="geometry">
            <mxPoint x="290" y="80" as="sourcePoint" />
            <mxPoint x="340" y="30" as="targetPoint" />
          </mxGeometry>
        </mxCell>
        <mxCell id="-37k8DLq6wRsoh5hlZ1D-30" value="" style="endArrow=classic;html=1;rounded=0;entryX=0;entryY=0.5;entryDx=0;entryDy=0;exitX=1;exitY=0.5;exitDx=0;exitDy=0;startArrow=classicThin;startFill=1;" parent="1" source="-37k8DLq6wRsoh5hlZ1D-1" target="-37k8DLq6wRsoh5hlZ1D-12" edge="1">
          <mxGeometry width="50" height="50" relative="1" as="geometry">
            <mxPoint x="405" y="-500" as="sourcePoint" />
            <mxPoint x="260" y="-80" as="targetPoint" />
          </mxGeometry>
        </mxCell>
        <mxCell id="-37k8DLq6wRsoh5hlZ1D-32" value="" style="endArrow=classic;html=1;rounded=0;entryX=0.5;entryY=0;entryDx=0;entryDy=0;exitX=0.5;exitY=1;exitDx=0;exitDy=0;startArrow=classic;startFill=1;" parent="1" source="-37k8DLq6wRsoh5hlZ1D-12" target="-37k8DLq6wRsoh5hlZ1D-2" edge="1">
          <mxGeometry width="50" height="50" relative="1" as="geometry">
            <mxPoint x="680" y="-30" as="sourcePoint" />
            <mxPoint x="730" y="-80" as="targetPoint" />
            <Array as="points">
              <mxPoint x="470" y="-150" />
            </Array>
          </mxGeometry>
        </mxCell>
        <mxCell id="-37k8DLq6wRsoh5hlZ1D-33" value="" style="endArrow=classic;html=1;rounded=0;exitX=0.5;exitY=1;exitDx=0;exitDy=0;startArrow=classic;startFill=1;" parent="1" source="-37k8DLq6wRsoh5hlZ1D-12" target="-37k8DLq6wRsoh5hlZ1D-6" edge="1">
          <mxGeometry width="50" height="50" relative="1" as="geometry">
            <mxPoint x="840" y="100" as="sourcePoint" />
            <mxPoint x="890" y="50" as="targetPoint" />
          </mxGeometry>
        </mxCell>
        <mxCell id="-37k8DLq6wRsoh5hlZ1D-34" value="" style="endArrow=classic;startArrow=classic;html=1;rounded=0;entryX=0;entryY=0.5;entryDx=0;entryDy=0;exitX=1.01;exitY=0.459;exitDx=0;exitDy=0;exitPerimeter=0;" parent="1" source="-37k8DLq6wRsoh5hlZ1D-6" target="-37k8DLq6wRsoh5hlZ1D-7" edge="1">
          <mxGeometry width="50" height="50" relative="1" as="geometry">
            <mxPoint x="680" y="90" as="sourcePoint" />
            <mxPoint x="730" y="40" as="targetPoint" />
          </mxGeometry>
        </mxCell>
        <mxCell id="-37k8DLq6wRsoh5hlZ1D-35" value="ЧАТ С АДМИНОМ" style="rounded=0;whiteSpace=wrap;html=1;" parent="1" vertex="1">
          <mxGeometry x="-330" y="-590" width="180" height="160" as="geometry" />
        </mxCell>
        <mxCell id="-37k8DLq6wRsoh5hlZ1D-31" value="КНОПКА ОПЛАТИТЬ" style="endArrow=classic;html=1;rounded=0;exitX=0.5;exitY=1;exitDx=0;exitDy=0;startArrow=classic;startFill=1;entryX=0;entryY=0;entryDx=0;entryDy=0;" parent="1" source="-37k8DLq6wRsoh5hlZ1D-2" target="-37k8DLq6wRsoh5hlZ1D-59" edge="1">
          <mxGeometry width="50" height="50" relative="1" as="geometry">
            <mxPoint x="335" y="330" as="sourcePoint" />
            <mxPoint x="245.99999999999955" y="350.8000000000002" as="targetPoint" />
          </mxGeometry>
        </mxCell>
        <mxCell id="-37k8DLq6wRsoh5hlZ1D-39" value="КНОПКА ВЕРНУТЬСЯ" style="endArrow=classic;html=1;rounded=0;entryX=0.5;entryY=1;entryDx=0;entryDy=0;exitX=0.5;exitY=0;exitDx=0;exitDy=0;" parent="1" source="-37k8DLq6wRsoh5hlZ1D-3" target="-37k8DLq6wRsoh5hlZ1D-2" edge="1">
          <mxGeometry width="50" height="50" relative="1" as="geometry">
            <mxPoint x="20" y="350" as="sourcePoint" />
            <mxPoint x="70" y="300" as="targetPoint" />
            <Array as="points">
              <mxPoint x="400" y="450" />
            </Array>
          </mxGeometry>
        </mxCell>
        <mxCell id="-37k8DLq6wRsoh5hlZ1D-40" value="КНОПКА ВОЙТИ" style="endArrow=classic;html=1;rounded=0;exitX=0.25;exitY=1;exitDx=0;exitDy=0;entryX=1;entryY=0.5;entryDx=0;entryDy=0;" parent="1" source="-37k8DLq6wRsoh5hlZ1D-1" target="-37k8DLq6wRsoh5hlZ1D-4" edge="1">
          <mxGeometry width="50" height="50" relative="1" as="geometry">
            <mxPoint x="-20" y="20" as="sourcePoint" />
            <mxPoint x="-70" y="50" as="targetPoint" />
          </mxGeometry>
        </mxCell>
        <mxCell id="-37k8DLq6wRsoh5hlZ1D-42" value="" style="endArrow=classic;html=1;rounded=0;exitX=0.5;exitY=1;exitDx=0;exitDy=0;entryX=0.5;entryY=0;entryDx=0;entryDy=0;startArrow=none;startFill=0;" parent="1" source="-37k8DLq6wRsoh5hlZ1D-1" target="-37k8DLq6wRsoh5hlZ1D-41" edge="1">
          <mxGeometry width="50" height="50" relative="1" as="geometry">
            <mxPoint x="235" y="-130" as="sourcePoint" />
            <mxPoint x="160" y="130" as="targetPoint" />
          </mxGeometry>
        </mxCell>
        <mxCell id="-37k8DLq6wRsoh5hlZ1D-41" value="пустая ли коризна" style="rhombus;whiteSpace=wrap;html=1;" parent="1" vertex="1">
          <mxGeometry x="230" y="-210" width="80" height="80" as="geometry" />
        </mxCell>
        <mxCell id="-37k8DLq6wRsoh5hlZ1D-43" value="кнопка меню" style="endArrow=classic;html=1;rounded=0;entryX=0.5;entryY=1;entryDx=0;entryDy=0;exitX=0.5;exitY=0;exitDx=0;exitDy=0;" parent="1" source="-37k8DLq6wRsoh5hlZ1D-2" target="-37k8DLq6wRsoh5hlZ1D-1" edge="1">
          <mxGeometry width="50" height="50" relative="1" as="geometry">
            <mxPoint x="160" y="130" as="sourcePoint" />
            <mxPoint x="130" y="-90" as="targetPoint" />
            <Array as="points">
              <mxPoint x="140" y="-180" />
            </Array>
          </mxGeometry>
        </mxCell>
        <mxCell id="-37k8DLq6wRsoh5hlZ1D-45" value="&lt;div&gt;REDIRECT&lt;/div&gt;Вернуться на&amp;nbsp;&lt;div&gt;страницу где был&lt;/div&gt;" style="shape=parallelogram;perimeter=parallelogramPerimeter;whiteSpace=wrap;html=1;fixedSize=1;fillColor=#fff2cc;strokeColor=#d6b656;" parent="1" vertex="1">
          <mxGeometry x="-700" y="80" width="190" height="80" as="geometry" />
        </mxCell>
        <mxCell id="-37k8DLq6wRsoh5hlZ1D-46" value="" style="endArrow=classic;html=1;rounded=0;exitX=-0.013;exitY=0.462;exitDx=0;exitDy=0;exitPerimeter=0;" parent="1" source="-37k8DLq6wRsoh5hlZ1D-4" target="-37k8DLq6wRsoh5hlZ1D-45" edge="1">
          <mxGeometry width="50" height="50" relative="1" as="geometry">
            <mxPoint x="80" y="70" as="sourcePoint" />
            <mxPoint x="130" y="20" as="targetPoint" />
          </mxGeometry>
        </mxCell>
        <mxCell id="-37k8DLq6wRsoh5hlZ1D-47" value="" style="endArrow=classic;html=1;rounded=0;exitX=0.5;exitY=1;exitDx=0;exitDy=0;entryX=0.5;entryY=0;entryDx=0;entryDy=0;" parent="1" source="-37k8DLq6wRsoh5hlZ1D-14" target="-37k8DLq6wRsoh5hlZ1D-1" edge="1">
          <mxGeometry width="50" height="50" relative="1" as="geometry">
            <mxPoint x="80" y="-400" as="sourcePoint" />
            <mxPoint x="130" y="-450" as="targetPoint" />
          </mxGeometry>
        </mxCell>
        <mxCell id="-37k8DLq6wRsoh5hlZ1D-51" value="" style="endArrow=classic;html=1;rounded=0;exitX=1;exitY=0.5;exitDx=0;exitDy=0;entryX=0;entryY=0.5;entryDx=0;entryDy=0;startArrow=classic;startFill=1;" parent="1" source="-37k8DLq6wRsoh5hlZ1D-35" target="-37k8DLq6wRsoh5hlZ1D-1" edge="1">
          <mxGeometry width="50" height="50" relative="1" as="geometry">
            <mxPoint x="80" y="-160" as="sourcePoint" />
            <mxPoint x="130" y="-210" as="targetPoint" />
          </mxGeometry>
        </mxCell>
        <mxCell id="-37k8DLq6wRsoh5hlZ1D-54" value="*auth logic?*" style="rhombus;whiteSpace=wrap;html=1;dashed=1;" parent="1" vertex="1">
          <mxGeometry x="505" y="-620" width="70" height="60" as="geometry" />
        </mxCell>
        <mxCell id="-37k8DLq6wRsoh5hlZ1D-56" value="*auth logic?*" style="rhombus;whiteSpace=wrap;html=1;dashed=1;" parent="1" vertex="1">
          <mxGeometry x="835" y="-180" width="70" height="60" as="geometry" />
        </mxCell>
        <mxCell id="-37k8DLq6wRsoh5hlZ1D-57" value="*auth logic?*" style="rhombus;whiteSpace=wrap;html=1;dashed=1;" parent="1" vertex="1">
          <mxGeometry x="1115" y="-170" width="70" height="60" as="geometry" />
        </mxCell>
        <mxCell id="-37k8DLq6wRsoh5hlZ1D-59" value="*auth logic?*" style="rhombus;whiteSpace=wrap;html=1;dashed=1;" parent="1" vertex="1">
          <mxGeometry x="255" y="520" width="70" height="60" as="geometry" />
        </mxCell>
        <mxCell id="-37k8DLq6wRsoh5hlZ1D-60" value="*auth logic?*" style="rhombus;whiteSpace=wrap;html=1;dashed=1;" parent="1" vertex="1">
          <mxGeometry x="-280" y="-610" width="80" height="80" as="geometry" />
        </mxCell>
        <mxCell id="-37k8DLq6wRsoh5hlZ1D-64" value="/orders" style="rounded=0;whiteSpace=wrap;html=1;fillColor=#fff2cc;strokeColor=#d6b656;" parent="1" vertex="1">
          <mxGeometry x="450" y="-650" width="180" height="40" as="geometry" />
        </mxCell>
        <mxCell id="-37k8DLq6wRsoh5hlZ1D-66" value="СПИСОК ТЕКУЩИХ" style="whiteSpace=wrap;html=1;aspect=fixed;" parent="1" vertex="1">
          <mxGeometry x="670" y="-925" width="170" height="170" as="geometry" />
        </mxCell>
        <mxCell id="-37k8DLq6wRsoh5hlZ1D-67" value="ИСТОРИЯ ЗАКАЗОВ" style="whiteSpace=wrap;html=1;aspect=fixed;" parent="1" vertex="1">
          <mxGeometry x="920" y="-705" width="150" height="150" as="geometry" />
        </mxCell>
        <mxCell id="-37k8DLq6wRsoh5hlZ1D-68" value="" style="endArrow=classic;html=1;rounded=0;entryX=0;entryY=0.5;entryDx=0;entryDy=0;exitX=1;exitY=0.5;exitDx=0;exitDy=0;startArrow=classic;startFill=1;dashed=1;dashPattern=8 8;" parent="1" source="-37k8DLq6wRsoh5hlZ1D-12" target="-37k8DLq6wRsoh5hlZ1D-67" edge="1">
          <mxGeometry width="50" height="50" relative="1" as="geometry">
            <mxPoint x="450" y="-500" as="sourcePoint" />
            <mxPoint x="500" y="-550" as="targetPoint" />
          </mxGeometry>
        </mxCell>
        <mxCell id="-37k8DLq6wRsoh5hlZ1D-69" value="" style="endArrow=classic;html=1;rounded=0;entryX=0;entryY=0.5;entryDx=0;entryDy=0;exitX=1;exitY=0.5;exitDx=0;exitDy=0;startArrow=classic;startFill=1;dashed=1;dashPattern=8 8;" parent="1" source="-37k8DLq6wRsoh5hlZ1D-12" target="-37k8DLq6wRsoh5hlZ1D-66" edge="1">
          <mxGeometry width="50" height="50" relative="1" as="geometry">
            <mxPoint x="450" y="-500" as="sourcePoint" />
            <mxPoint x="500" y="-550" as="targetPoint" />
          </mxGeometry>
        </mxCell>
        <mxCell id="-37k8DLq6wRsoh5hlZ1D-70" value="ОТМЕНЕННЫЕ ЗАКАЗЫ" style="whiteSpace=wrap;html=1;aspect=fixed;" parent="1" vertex="1">
          <mxGeometry x="810" y="-480" width="170" height="170" as="geometry" />
        </mxCell>
        <mxCell id="-37k8DLq6wRsoh5hlZ1D-71" value="" style="endArrow=classic;html=1;rounded=0;entryX=0;entryY=0.5;entryDx=0;entryDy=0;exitX=1;exitY=0.5;exitDx=0;exitDy=0;startArrow=classic;startFill=1;dashed=1;dashPattern=8 8;" parent="1" source="-37k8DLq6wRsoh5hlZ1D-12" target="-37k8DLq6wRsoh5hlZ1D-70" edge="1">
          <mxGeometry width="50" height="50" relative="1" as="geometry">
            <mxPoint x="450" y="-500" as="sourcePoint" />
            <mxPoint x="500" y="-550" as="targetPoint" />
          </mxGeometry>
        </mxCell>
        <mxCell id="-37k8DLq6wRsoh5hlZ1D-72" value="*auth logic?*" style="rhombus;whiteSpace=wrap;html=1;dashed=1;" parent="1" vertex="1">
          <mxGeometry x="960" y="-750" width="70" height="60" as="geometry" />
        </mxCell>
        <mxCell id="-37k8DLq6wRsoh5hlZ1D-73" value="*auth logic?*" style="rhombus;whiteSpace=wrap;html=1;dashed=1;" parent="1" vertex="1">
          <mxGeometry x="720" y="-950" width="70" height="60" as="geometry" />
        </mxCell>
        <mxCell id="-37k8DLq6wRsoh5hlZ1D-74" value="*auth logic?*" style="rhombus;whiteSpace=wrap;html=1;dashed=1;" parent="1" vertex="1">
          <mxGeometry x="860" y="-490" width="70" height="60" as="geometry" />
        </mxCell>
        <mxCell id="-37k8DLq6wRsoh5hlZ1D-75" value="/orders?status=active" style="rounded=0;whiteSpace=wrap;html=1;fillColor=#fff2cc;strokeColor=#d6b656;" parent="1" vertex="1">
          <mxGeometry x="665" y="-1000" width="180" height="40" as="geometry" />
        </mxCell>
        <mxCell id="-37k8DLq6wRsoh5hlZ1D-76" value="/orders?status=notActive" style="rounded=0;whiteSpace=wrap;html=1;fillColor=#fff2cc;strokeColor=#d6b656;" parent="1" vertex="1">
          <mxGeometry x="910" y="-790" width="180" height="40" as="geometry" />
        </mxCell>
        <mxCell id="-37k8DLq6wRsoh5hlZ1D-77" value="/orders?status=canceled" style="rounded=0;whiteSpace=wrap;html=1;fillColor=#fff2cc;strokeColor=#d6b656;" parent="1" vertex="1">
          <mxGeometry x="805" y="-530" width="180" height="40" as="geometry" />
        </mxCell>
        <mxCell id="-37k8DLq6wRsoh5hlZ1D-78" value="/orders/id" style="rounded=0;whiteSpace=wrap;html=1;fillColor=#fff2cc;strokeColor=#d6b656;" parent="1" vertex="1">
          <mxGeometry x="780" y="-220" width="180" height="40" as="geometry" />
        </mxCell>
        <mxCell id="-37k8DLq6wRsoh5hlZ1D-79" value="/orders/id/courierchat" style="rounded=0;whiteSpace=wrap;html=1;fillColor=#fff2cc;strokeColor=#d6b656;" parent="1" vertex="1">
          <mxGeometry x="1060" y="-210" width="180" height="40" as="geometry" />
        </mxCell>
        <mxCell id="-37k8DLq6wRsoh5hlZ1D-80" value="/admin_chat" style="rounded=0;whiteSpace=wrap;html=1;fillColor=#fff2cc;strokeColor=#d6b656;" parent="1" vertex="1">
          <mxGeometry x="-330" y="-640" width="180" height="30" as="geometry" />
        </mxCell>
        <mxCell id="-37k8DLq6wRsoh5hlZ1D-81" value="/login" style="rounded=0;whiteSpace=wrap;html=1;fillColor=#fff2cc;strokeColor=#d6b656;" parent="1" vertex="1">
          <mxGeometry x="-410" y="-130" width="180" height="60" as="geometry" />
        </mxCell>
        <mxCell id="-37k8DLq6wRsoh5hlZ1D-82" value="/regist" style="rounded=0;whiteSpace=wrap;html=1;fillColor=#fff2cc;strokeColor=#d6b656;" parent="1" vertex="1">
          <mxGeometry x="-440" y="270" width="180" height="40" as="geometry" />
        </mxCell>
        <mxCell id="-37k8DLq6wRsoh5hlZ1D-83" value="/backet" style="rounded=0;whiteSpace=wrap;html=1;fillColor=#fff2cc;strokeColor=#d6b656;" parent="1" vertex="1">
          <mxGeometry x="180" y="10" width="180" height="30" as="geometry" />
        </mxCell>
        <mxCell id="-37k8DLq6wRsoh5hlZ1D-84" value="/payment + payload(bucket)" style="rounded=0;whiteSpace=wrap;html=1;fillColor=#fff2cc;strokeColor=#d6b656;" parent="1" vertex="1">
          <mxGeometry x="200" y="500" width="180" height="30" as="geometry" />
        </mxCell>
        <mxCell id="-37k8DLq6wRsoh5hlZ1D-85" value="" style="endArrow=classic;html=1;rounded=0;entryX=0.5;entryY=1;entryDx=0;entryDy=0;" parent="1" source="-37k8DLq6wRsoh5hlZ1D-86" target="-37k8DLq6wRsoh5hlZ1D-6" edge="1">
          <mxGeometry width="50" height="50" relative="1" as="geometry">
            <mxPoint x="630" y="450" as="sourcePoint" />
            <mxPoint x="1020" y="80" as="targetPoint" />
          </mxGeometry>
        </mxCell>
        <mxCell id="-37k8DLq6wRsoh5hlZ1D-89" value="да" style="edgeLabel;html=1;align=center;verticalAlign=middle;resizable=0;points=[];" parent="-37k8DLq6wRsoh5hlZ1D-85" vertex="1" connectable="0">
          <mxGeometry x="-0.7803" relative="1" as="geometry">
            <mxPoint as="offset" />
          </mxGeometry>
        </mxCell>
        <mxCell id="-37k8DLq6wRsoh5hlZ1D-87" value="" style="endArrow=classic;html=1;rounded=0;entryX=0.5;entryY=1;entryDx=0;entryDy=0;" parent="1" target="-37k8DLq6wRsoh5hlZ1D-86" edge="1">
          <mxGeometry width="50" height="50" relative="1" as="geometry">
            <mxPoint x="630" y="450" as="sourcePoint" />
            <mxPoint x="870" y="50" as="targetPoint" />
          </mxGeometry>
        </mxCell>
        <mxCell id="-37k8DLq6wRsoh5hlZ1D-86" value="ОПЛАТА УСПЕШНО" style="rhombus;whiteSpace=wrap;html=1;" parent="1" vertex="1">
          <mxGeometry x="590" y="420" width="80" height="80" as="geometry" />
        </mxCell>
        <mxCell id="-37k8DLq6wRsoh5hlZ1D-90" value="нет" style="endArrow=classic;html=1;rounded=0;exitX=0;exitY=0.5;exitDx=0;exitDy=0;entryX=1.013;entryY=0.459;entryDx=0;entryDy=0;entryPerimeter=0;" parent="1" source="-37k8DLq6wRsoh5hlZ1D-86" target="-37k8DLq6wRsoh5hlZ1D-3" edge="1">
          <mxGeometry width="50" height="50" relative="1" as="geometry">
            <mxPoint x="540" y="330" as="sourcePoint" />
            <mxPoint x="590" y="280" as="targetPoint" />
          </mxGeometry>
        </mxCell>
      </root>
    </mxGraphModel>
  </diagram>
</mxfile>
